<?xml version="1.0" encoding="UTF-8"?>
<!DOCTYPE svg PUBLIC "-//W3C//DTD SVG 1.1//EN" "http://www.w3.org/Graphics/SVG/1.1/DTD/svg11.dtd">
<!-- Creator: CorelDRAW 2020 (64 Bit) -->
<svg xmlns="http://www.w3.org/2000/svg" xml:space="preserve" width="42.3332mm" height="25.4mm" version="1.1" style="shape-rendering:geometricPrecision; text-rendering:geometricPrecision; image-rendering:optimizeQuality; fill-rule:evenodd; clip-rule:evenodd"
viewBox="0 0 4233.32 2540"
 xmlns:xlink="http://www.w3.org/1999/xlink"
 xmlns:xodm="http://www.corel.com/coreldraw/odm/2003">
 <defs>
  <style type="text/css">
   <![CDATA[
    .fil1 {fill:#666666}
    .fil0 {fill:#F70000}
    .fil3 {fill:#666666;fill-rule:nonzero}
    .fil2 {fill:#F70000;fill-rule:nonzero}
   ]]>
  </style>
 </defs>
 <g id="Camada_x0020_1">
  <metadata id="CorelCorpID_0Corel-Layer"/>
  <path class="fil0" d="M585.85 1338.85c0,4.96 -3.38,7.59 -7.67,8.74l-197.32 53.14c-3.29,0.88 -7.53,-0.48 -7.53,-3.37l0 -37.31 212.52 -57.85 0 36.65z"/>
  <path class="fil0" d="M415.81 1434.87c0,2.99 3.59,4.79 7.8,3.85l114.92 -31.04c2.39,-0.64 4.92,-3.35 4.92,-6.21l0 -31.12 -127.64 34.46 0 30.06z"/>
  <path class="fil0" d="M458.75 1466.53c0,2 3.15,3.88 5.59,3.23 9.96,-2.62 19.94,-5.18 29.89,-7.88 3.69,-1 6.83,-4.63 6.83,-8.31l0 -22.1 -42.31 11.59 0 23.47z"/>
  <path class="fil1" d="M697.04 1571.89l-25.57 0.15 0 -41.94 23.61 0c8.91,0 18.75,-10.05 18.75,-21.39l0 -138.05c0,-49.51 13.84,-96.78 34.61,-117.02 -24.92,-25.96 -34.91,-72.76 -34.83,-125.57l0.18 -129.23c0.02,-11.65 -9.41,-21.45 -19.65,-21.45l-22.88 0 0 -41.83 24.83 0c29.14,0 59.38,26.38 59.38,57.95l0 125.2c0,41.73 6.52,76.47 15.64,94.68 6.36,12.68 17.11,19.55 27,19.33l0 41.94c-17.14,0.75 -26.81,14.05 -32.62,32.63 -8.54,27.31 -9.74,51.65 -9.75,75.13l0 128.78c0,20.92 -11,38.11 -27.04,49.18 -10.6,7.31 -21.87,11.46 -31.66,11.51z"/>
  <path class="fil1" d="M261.93 1571.89l25.57 0.15 0 -41.94 -23.6 0c-8.91,0 -18.76,-10.05 -18.76,-21.39l0 -138.05c0,-49.51 -13.83,-96.78 -34.61,-117.02 24.93,-25.96 34.91,-72.76 34.84,-125.57l-0.19 -129.23c-0.01,-11.65 9.42,-21.45 19.66,-21.45l22.87 0 0 -41.83 -24.83 0c-29.13,0 -59.38,26.38 -59.38,57.95l0 125.2c0,41.73 -6.52,76.47 -15.64,94.68 -6.36,12.68 -17.11,19.55 -27,19.33l0 41.94c17.14,0.75 26.81,14.05 32.62,32.63 8.55,27.31 9.74,51.65 9.75,75.13l0 128.78c0,20.92 11,38.11 27.05,49.18 10.6,7.31 21.86,11.46 31.65,11.51z"/>
  <path class="fil0" d="M394.71 1529.63c11.87,0 21.49,9.62 21.49,21.49 0,11.86 -9.62,21.48 -21.49,21.48 -11.86,0 -21.48,-9.62 -21.48,-21.48 0,-11.87 9.62,-21.49 21.48,-21.49z"/>
  <path class="fil0" d="M479.64 1529.63c11.87,0 21.49,9.62 21.49,21.49 0,11.86 -9.62,21.48 -21.49,21.48 -11.86,0 -21.48,-9.62 -21.48,-21.48 0,-11.87 9.62,-21.49 21.48,-21.49z"/>
  <path class="fil0" d="M564.79 1529.63c11.87,0 21.48,9.62 21.48,21.49 0,11.86 -9.61,21.48 -21.48,21.48 -11.87,0 -21.49,-9.62 -21.49,-21.48 0,-11.87 9.62,-21.49 21.49,-21.49z"/>
  <path class="fil0" d="M373.64 1288.81l0.41 57.11 41.86 -11.22 0 -65.82c-36.7,-28.24 -52.65,-76.41 -33.97,-125.36 13.58,-35.57 59.86,-70.83 111.49,-64.36 36.36,4.55 84.74,34.85 91.45,91.45 4.11,34.65 -6.97,58.98 -21.87,79.65 -5.18,7.18 -12.01,12.48 -18.9,18.09l0 31.64 41.54 -11.02c28.74,-27.07 54.5,-79.06 37.94,-142.52 -14.55,-55.76 -51.54,-90.33 -105.76,-105.77 -26.11,-7.43 -51.65,-6.93 -76.56,0 -59.1,16.45 -91.83,54.78 -105.77,105.78 -5.49,20.08 -6.08,39.93 -3.48,59.15 3.95,29.22 16.67,57.11 41.62,83.2z"/>
  <path class="fil2" d="M925.34 1018.44l55.23 0 0 284.21 -55.23 0 0 -284.21zm374.45 199.86l7.45 6.91 0 -207.08 55.23 0 0.1 245.65c0,6.49 -1.04,12.14 -3.12,16.95 -2.07,4.8 -4.83,8.8 -8.26,11.98 -3.43,3.18 -7.39,5.58 -11.89,7.2 -4.5,1.63 -9.18,2.44 -14.02,2.44 -5.73,0 -11.41,-1.07 -17.04,-3.2 -5.64,-2.13 -10.72,-5.26 -15.25,-9.39l-205.64 -187.27 -7.45 -6.91 0 207.07 -55.24 0 -0.09 -245.64c0,-6.5 1.04,-12.15 3.12,-16.95 2.07,-4.81 4.83,-8.81 8.26,-12.03 3.43,-3.21 7.39,-5.62 11.89,-7.2 4.5,-1.6 9.18,-2.39 14.02,-2.39 5.73,0 11.41,1.07 17.05,3.2 5.63,2.13 10.71,5.26 15.24,9.39l205.64 187.27zm106.78 -167.28c0,-4.87 0.72,-9.3 2.17,-13.29 1.44,-4 3.51,-7.43 6.18,-10.31 2.68,-2.87 5.87,-5.09 9.58,-6.65 3.72,-1.55 7.84,-2.33 12.37,-2.33l307.98 0 0 54.3 -283.05 0 0 57.56 248.68 0 0 54.3 -248.68 0 0 118.05 -55.23 0 0 -251.63zm448.08 -32.58l262.09 0 0 54.3 -261.05 0c-4.22,0 -7.88,0.82 -11,2.44 -3.12,1.62 -5.7,3.79 -7.74,6.5 -2.05,2.7 -3.57,5.77 -4.58,9.18 -1.01,3.42 -1.5,6.92 -1.46,10.51 0.03,3.59 0.56,7.09 1.6,10.51 1.04,3.41 2.6,6.47 4.67,9.18 2.08,2.71 4.66,4.87 7.75,6.5 3.08,1.62 6.67,2.43 10.76,2.43l190.9 0.31c8.88,0 16.98,1.12 24.31,3.35 7.34,2.23 13.93,5.33 19.78,9.28 5.86,3.96 10.97,8.65 15.35,14.06 4.37,5.42 8.01,11.32 10.9,17.72 2.9,6.39 5.07,13.12 6.52,20.2 1.44,7.07 2.17,14.26 2.17,21.57 0.06,7.1 -0.63,14.16 -2.08,21.16 -1.45,7 -3.62,13.7 -6.52,20.1 -2.89,6.39 -6.52,12.33 -10.9,17.81 -4.37,5.48 -9.5,10.22 -15.39,14.21 -5.88,3.99 -12.51,7.14 -19.87,9.44 -7.37,2.3 -15.46,3.45 -24.27,3.45l-261.52 0 0 -54.3 260.48 0c4.16,0 7.79,-1.03 10.91,-3.1 3.11,-2.06 5.71,-4.67 7.79,-7.81 2.08,-3.15 3.63,-6.6 4.67,-10.36 1.04,-3.75 1.56,-7.29 1.56,-10.6 0,-3.05 -0.52,-6.18 -1.56,-9.39 -1.04,-3.22 -2.59,-6.11 -4.67,-8.68 -2.08,-2.57 -4.68,-4.69 -7.79,-6.35 -3.12,-1.65 -6.75,-2.48 -10.91,-2.48l-190.9 -0.31c-10.57,0 -20.09,-1.59 -28.56,-4.77 -8.46,-3.18 -15.86,-7.51 -22.19,-12.99 -6.32,-5.48 -11.59,-11.86 -15.81,-19.13 -4.22,-7.28 -7.36,-15.03 -9.44,-23.25 -2.08,-8.22 -3.12,-16.65 -3.12,-25.27 0,-8.63 1.07,-17.06 3.21,-25.28 2.14,-8.22 5.32,-15.97 9.54,-23.24 4.22,-7.28 9.49,-13.66 15.81,-19.14 6.33,-5.48 13.71,-9.81 22.14,-12.99 8.44,-3.18 17.91,-4.77 28.42,-4.77zm308.35 251.63l0 -219.05c0,-4.87 0.73,-9.3 2.18,-13.29 1.44,-4 3.51,-7.43 6.18,-10.31 2.67,-2.87 5.87,-5.09 9.58,-6.65 3.72,-1.55 7.84,-2.33 12.37,-2.33l307.98 0 0 54.3 -283.05 0 0 57.56 248.68 0 0 54.3 -248.68 0 0 63.75 283.05 0 0 54.3 -307.98 0c-4.53,0 -8.65,-0.77 -12.37,-2.33 -3.71,-1.56 -6.91,-3.77 -9.58,-6.65 -2.67,-2.88 -4.74,-6.31 -6.18,-10.3 -1.45,-4 -2.18,-8.43 -2.18,-13.3zm405.89 -251.63l235.75 0c8.87,0 16.98,1.15 24.31,3.45 7.33,2.3 13.94,5.45 19.83,9.44 5.88,3.99 11.01,8.73 15.39,14.21 4.37,5.48 8,11.42 10.9,17.81 2.9,6.4 5.07,13.1 6.51,20.1 1.45,7.01 2.14,14.06 2.08,21.17 0,7.24 -0.72,14.41 -2.17,21.52 -1.45,7.1 -3.62,13.85 -6.52,20.25 -2.89,6.39 -6.52,12.3 -10.9,17.71 -4.37,5.41 -9.49,10.1 -15.34,14.06 -5.86,3.96 -12.45,7.05 -19.78,9.29 -7.33,2.23 -15.44,3.34 -24.31,3.34l-1.04 0 84.97 111.86 -68.45 0 -84.97 -111.86 -141.34 0 0 111.86 -55.13 0 -0.1 -251.63c0,-4.87 0.72,-9.3 2.17,-13.29 1.45,-4 3.51,-7.43 6.19,-10.31 2.67,-2.87 5.87,-5.09 9.58,-6.65 3.71,-1.55 7.84,-2.33 12.37,-2.33zm234.71 118.05c4.09,0 7.68,-0.91 10.76,-2.74 3.09,-1.83 5.67,-4.23 7.74,-7.21 2.08,-2.98 3.64,-6.38 4.68,-10.2 1.04,-3.82 1.57,-7.73 1.6,-11.72 0.03,-4 -0.45,-7.9 -1.46,-11.73 -1.01,-3.82 -2.53,-7.22 -4.58,-10.2 -2.05,-2.98 -4.63,-5.38 -7.74,-7.2 -3.12,-1.83 -6.78,-2.75 -11,-2.75l-209.79 0 0 63.75 209.79 0zm166.16 -118.05l122.46 199.35 122.45 -199.35 67.23 0 -164.57 265.94c-8.49,13.81 -16.87,20.71 -25.11,20.71 -8.24,0 -16.62,-6.9 -25.11,-20.71l-164.57 -265.94 67.22 0zm341.21 251.63l0 -219.05c0,-4.87 0.73,-9.3 2.18,-13.29 1.44,-4 3.51,-7.43 6.18,-10.31 2.68,-2.87 5.87,-5.09 9.58,-6.65 3.72,-1.55 7.84,-2.33 12.37,-2.33l307.98 0 0 54.3 -283.05 0 0 57.56 248.68 0 0 54.3 -248.68 0 0 63.75 283.05 0 0 54.3 -307.98 0c-4.53,0 -8.65,-0.77 -12.37,-2.33 -3.71,-1.56 -6.9,-3.77 -9.58,-6.65 -2.67,-2.88 -4.74,-6.31 -6.18,-10.3 -1.45,-4 -2.18,-8.43 -2.18,-13.3zm405.89 -251.63l235.75 0c8.87,0 16.98,1.15 24.31,3.45 7.33,2.3 13.94,5.45 19.83,9.44 5.88,3.99 11.01,8.73 15.39,14.21 4.37,5.48 8.01,11.42 10.9,17.81 2.9,6.4 5.07,13.1 6.51,20.1 1.45,7.01 2.15,14.06 2.08,21.17 0,7.24 -0.72,14.41 -2.17,21.52 -1.45,7.1 -3.62,13.85 -6.51,20.25 -2.9,6.39 -6.53,12.3 -10.91,17.71 -4.37,5.41 -9.49,10.1 -15.34,14.06 -5.86,3.96 -12.45,7.05 -19.78,9.29 -7.33,2.23 -15.44,3.34 -24.31,3.34l-1.04 0 84.97 111.86 -68.45 0 -84.97 -111.86 -141.34 0 0 111.86 -55.13 0 -0.1 -251.63c0,-4.87 0.72,-9.3 2.17,-13.29 1.45,-4 3.51,-7.43 6.19,-10.31 2.67,-2.87 5.87,-5.09 9.58,-6.65 3.71,-1.55 7.84,-2.33 12.37,-2.33zm234.71 118.05c4.09,0 7.68,-0.91 10.76,-2.74 3.09,-1.83 5.67,-4.23 7.74,-7.21 2.08,-2.98 3.64,-6.38 4.68,-10.2 1.04,-3.82 1.57,-7.73 1.6,-11.72 0.03,-4 -0.45,-7.9 -1.46,-11.73 -1.01,-3.82 -2.53,-7.22 -4.58,-10.2 -2.05,-2.98 -4.62,-5.38 -7.74,-7.2 -3.12,-1.83 -6.78,-2.75 -11,-2.75l-209.79 0 0 63.75 209.79 0z"/>
  <path class="fil3" d="M1236.71 1524.02c6.98,1.9 25.88,4.13 39.7,4.13 13.34,0 33.35,-1.75 36.84,-26.68l1.43 -10.8c2.07,-12.87 -1.11,-28.27 -21.28,-28.27l-20.64 0c-8.42,0 -15.41,0.79 -13.03,-14.3l1.43 -9.21c2.07,-13.97 9.22,-15.56 20.81,-15.08 1.59,0 30.65,1.27 38.91,1.43l1.74 -11.6c-8.89,-1.74 -29.38,-3.81 -40.02,-3.97 -17.31,-0.47 -32.24,3.5 -36.05,28.11l-1.59 10.96c-1.74,11.12 -1.27,28.27 24.46,28.27l20.33 0c11.43,0 11.59,5.88 10.32,14.29l-1.59 9.53c-1.74,12.23 -14.29,13.18 -20.8,13.18 -14.77,0 -32.56,-0.63 -39.23,-1.59l-1.74 11.6zm140.28 -54.47c6.98,-44.63 17.94,-45.58 37.95,-45.58 18.9,0 30.65,1.11 23.67,45.58 -5.88,37.31 -16.52,43.83 -37.8,43.83 -22.55,0 -30.02,-5.56 -23.82,-43.83zm-14.61 -0.64c-8.42,52.88 11.43,58.6 37.48,58.6 27.63,0 45.57,-6.03 53.36,-57.33 7.94,-52.89 -9.69,-60.35 -37.33,-60.35 -27.63,0 -44.94,4.61 -53.51,59.08zm132.02 37.19c-2.38,15.22 7.94,20.62 19.05,20.62l48.6 0 2.22 -14.14 -46.21 0c-4.61,0 -10.01,0.16 -8.73,-8.23l15.08 -93.72 -14.61 0 -15.4 95.47zm111.06 -28.3c-5.88,37.8 8.73,49.87 34.14,49.87 35.73,0 45.1,-21.44 49.55,-48.44l10.48 -68.6 -14.77 0 -10.64 67.81c-4.13,26.2 -13.5,35.1 -33.19,35.1 -18.42,0 -25.25,-7.15 -20.8,-35.1l10.64 -67.81 -14.77 0 -10.64 67.17zm143.13 76.71l8.42 0c13.03,0 17.47,-5.56 20.01,-21.76 0,0 -7.94,0.16 -11.75,0 -0.95,6.04 -2.22,11.12 -7.15,12.55l-8.41 2.38 -1.12 6.83zm-11.75 -86.87c-4.76,28.9 0,60.19 29.86,60.19 12.23,0 27,-0.16 40.02,-3.81l1.59 -11.6c-19.06,1.27 -30.49,1.75 -38.91,1.27 -18.26,-1.27 -22.08,-19.21 -17.63,-44.94 7.15,-45.9 23.35,-45.1 32.72,-45.26 15.24,-0.32 34.14,2.06 37.16,2.38l1.75 -11.43c-11.12,-2.54 -28.11,-5.09 -38.44,-5.09 -31.6,0 -41.92,21.29 -48.12,58.29zm146.79 -74.48l2.39 7.14c5.08,-2.38 8.89,-5.4 15.88,-5.56 5.71,-0.15 7.78,5.24 16.36,5.4 7.14,0.16 13.49,-5.55 19.85,-10l-2.23 -7.47c-1.43,1.12 -11.75,5.72 -15.88,5.56 -4.76,-0.16 -8.1,-5.08 -15.88,-5.4 -6.99,0 -13.82,5.09 -20.49,10.33zm-14.61 76.39c6.99,-44.63 17.95,-45.58 37.96,-45.58 18.9,0 30.65,1.11 23.66,45.58 -5.87,37.31 -16.51,43.83 -37.8,43.83 -22.55,0 -30.01,-5.56 -23.82,-43.83zm-14.61 -0.64c-8.41,52.88 11.44,58.6 37.48,58.6 27.63,0 45.58,-6.03 53.36,-57.33 7.94,-52.89 -9.68,-60.35 -37.32,-60.35 -27.63,0 -44.94,4.61 -53.52,59.08zm128.69 37.32c-2.54,16.2 9.05,21.76 19.69,21.12 0,0 46.37,-2.38 48.92,-2.7l2.06 -11.59 -47.17 0c-4.6,0 -9.84,0.16 -8.73,-8.26l4.61 -28.11 50.5 -1.59 1.9 -11.75 -50.18 -1.59 4.44 -27.95c0.64,-4.29 2.07,-8.89 9.69,-8.89l48.76 0 1.75 -11.75c-2.71,-0.32 -49.55,-2.54 -49.55,-2.54 -12.39,-0.48 -22.24,4.76 -24.94,21.28l-11.75 74.32zm116.3 17.79c6.99,1.9 25.89,4.13 39.7,4.13 13.34,0 33.35,-1.75 36.85,-26.68l1.43 -10.8c2.06,-12.87 -1.12,-28.27 -21.28,-28.27l-20.65 0c-8.42,0 -15.4,0.79 -13.02,-14.3l1.43 -9.21c2.06,-13.97 9.21,-15.56 20.8,-15.08 1.59,0 30.65,1.27 38.91,1.43l1.75 -11.6c-8.9,-1.74 -29.38,-3.81 -40.02,-3.97 -17.31,-0.47 -32.24,3.5 -36.05,28.11l-1.59 10.96c-1.75,11.12 -1.27,28.27 24.46,28.27l20.32 0c11.44,0 11.6,5.88 10.33,14.29l-1.59 9.53c-1.75,12.23 -14.29,13.18 -20.81,13.18 -14.77,0 -32.55,-0.63 -39.22,-1.59l-1.75 11.6zm162.36 -17.79c-2.55,16.2 9.05,21.76 19.69,21.12 0,0 46.37,-2.38 48.91,-2.7l2.07 -11.59 -47.17 0c-4.61,0 -9.85,0.16 -8.74,-8.26l4.61 -28.11 50.5 -1.59 1.91 -11.75 -50.19 -1.59 4.45 -27.95c0.64,-4.29 2.06,-8.89 9.69,-8.89l48.75 0 1.75 -11.75c-2.7,-0.32 -49.55,-2.54 -49.55,-2.54 -12.39,-0.48 -22.23,4.76 -24.93,21.28l-11.75 74.32zm114.39 20.49l14.61 0 20.8 -90.08 13.34 90.08 15.73 0 41.45 -90.23 -7.47 90.23 14.45 0 9.06 -116.09 -20.17 0 -41.93 91.81 -13.66 -91.81 -19.37 0 -26.84 116.09zm208.25 -101.96l33.35 0 -16.2 101.96 14.61 0 16.2 -101.96 34.15 0 2.38 -14.13 -82.11 0 -2.38 14.13zm111.7 81.47c-2.55,16.2 9.05,21.76 19.69,21.12 0,0 46.37,-2.38 48.91,-2.7l2.07 -11.59 -47.17 0c-4.61,0 -9.85,0.16 -8.74,-8.26l4.61 -28.11 50.5 -1.59 1.91 -11.75 -50.19 -1.59 4.45 -27.95c0.64,-4.29 2.06,-8.89 9.69,-8.89l48.75 0 1.75 -11.75c-2.7,-0.32 -49.55,-2.54 -49.55,-2.54 -12.39,-0.48 -22.23,4.76 -24.93,21.28l-11.75 74.32zm121.69 -38.59c-4.76,28.9 0,60.19 29.86,60.19 12.23,0 27,-0.16 40.02,-3.81l1.59 -11.6c-19.06,1.27 -30.49,1.75 -38.91,1.27 -18.26,-1.27 -22.39,-19.21 -17.95,-44.94 7.31,-45.9 23.67,-45.1 33.04,-45.26 15.24,-0.32 34.14,2.06 37.16,2.38l1.75 -11.43c-11.12,-2.54 -28.11,-5.09 -38.44,-5.09 -31.6,0 -41.92,21.29 -48.12,58.29zm114.87 59.08l14.77 0 13.98 -88.81 41.45 88.81 14.13 0 18.43 -116.09 -14.62 0 -14.13 89.12 -41.29 -89.12 -14.29 0 -18.43 116.09zm154.74 -57.17c6.98,-44.63 17.94,-45.58 37.95,-45.58 18.9,0 30.65,1.11 23.66,45.58 -5.87,37.31 -16.51,43.83 -37.79,43.83 -22.55,0 -30.02,-5.56 -23.82,-43.83zm-14.62 -0.64c-8.41,52.88 11.44,58.6 37.48,58.6 27.64,0 45.58,-6.03 53.37,-57.33 7.94,-52.89 -9.69,-60.35 -37.33,-60.35 -27.63,0 -44.94,4.61 -53.52,59.08zm132.03 37.19c-2.39,15.22 7.94,20.62 19.05,20.62l48.6 0 2.22 -14.14 -46.21 0c-4.61,0 -10.01,0.16 -8.74,-8.23l15.09 -93.72 -14.61 0 -15.4 95.47zm126.46 -36.55c6.99,-44.63 17.95,-45.58 37.96,-45.58 18.9,0 30.65,1.11 23.66,45.58 -5.88,37.31 -16.52,43.83 -37.8,43.83 -22.55,0 -30.01,-5.56 -23.82,-43.83zm-14.61 -0.64c-8.42,52.88 11.43,58.6 37.48,58.6 27.63,0 45.58,-6.03 53.36,-57.33 7.94,-52.89 -9.69,-60.35 -37.32,-60.35 -27.63,0 -44.94,4.61 -53.52,59.08zm135.04 -1.27c-4.77,27.79 -0.32,60.51 29.7,60.35 12.23,-0.16 24.14,-5.24 29.22,-10.01l2.38 8.9 10.96 0 10 -62.58c-3.81,-0.31 -7.3,-0.31 -10.64,-0.31 -12.54,0 -21.6,1.9 -28.42,3.81l-1.59 9.69 23.98 0 -4.92 27.63c0,0 -16.04,8.57 -27.96,8.57 -17.94,0.16 -21.75,-18.89 -17.62,-44.78 6.67,-45.1 22.39,-45.58 32.55,-45.58 9.21,0.16 28.75,1.27 37.01,2.54l1.58 -11.59c-12.22,-2.54 -27.79,-4.93 -38.27,-4.77 -31.6,0 -41.61,20.97 -47.96,58.13zm121.22 59.08l14.61 0 18.42 -116.09 -14.61 0 -18.42 116.09zm98.51 -44.31l26.37 -51.93 9.05 51.93 -35.42 0zm-38.9 44.31l16.04 0 15.88 -30.49 44.62 0 5.72 30.49 14.93 0 -21.6 -116.09 -15.4 0 -60.19 116.09z"/>
 </g>
</svg>
